<?xml version="1.0" encoding="utf-8"?>
<!-- Generator: Adobe Illustrator 24.1.2, SVG Export Plug-In . SVG Version: 6.00 Build 0)  -->
<svg version="1.1" id="레이어_1" xmlns="http://www.w3.org/2000/svg" xmlns:xlink="http://www.w3.org/1999/xlink" x="0px"
	 y="0px" viewBox="0 0 180 53" style="enable-background:new 0 0 180 53;" xml:space="preserve">
<style type="text/css">
	.st0{fill:url(#SVGID_1_);}
	.st1{fill:url(#SVGID_2_);}
	.st2{fill:url(#SVGID_3_);}
	.st3{fill:url(#SVGID_4_);}
	.st4{fill:url(#SVGID_5_);}
	.st5{fill:url(#SVGID_6_);}
	.st6{fill:url(#SVGID_7_);}
	.st7{fill:#888888;}
	.st8{fill:#07539C;}
</style>
<g>
	<g>
		<g>
			<linearGradient id="SVGID_1_" gradientUnits="userSpaceOnUse" x1="21.4763" y1="7.1874" x2="15.0128" y2="43.8438">
				<stop  offset="1.750000e-02" style="stop-color:#3DB1DF"/>
				<stop  offset="0.145" style="stop-color:#34A7D8"/>
				<stop  offset="0.8" style="stop-color:#0B76B7"/>
			</linearGradient>
			<path class="st0" d="M18,40.2c-7.4,0-13.5-6.1-13.5-13.5c0-7.4,6.1-13.5,13.5-13.5h11.3c3.5-0.3,4-3.7,4-3.9H18
				c-9.6,0-17.4,7.8-17.4,17.4c0,9.6,7.8,17.4,17.4,17.4c9,0,16.4-6.8,17.3-15.6h-3.9C30.5,35.1,24.9,40.2,18,40.2z"/>
			<linearGradient id="SVGID_2_" gradientUnits="userSpaceOnUse" x1="20.4932" y1="12.7641" x2="15.8713" y2="38.9767">
				<stop  offset="0" style="stop-color:#81B62B"/>
				<stop  offset="0.8" style="stop-color:#17A58D"/>
			</linearGradient>
			<path class="st1" d="M18,37c-5.7,0-10.3-4.6-10.3-10.3S12.4,16.4,18,16.4h8.1c1.7-0.2,2.4-1.4,2.6-2.2v0H18
				c-6.9,0-12.5,5.6-12.5,12.5S11.2,39.2,18,39.2c6.3,0,11.4-4.6,12.3-10.6h-2.2C27.3,33.3,23.1,37,18,37z"/>
			<linearGradient id="SVGID_3_" gradientUnits="userSpaceOnUse" x1="19.8518" y1="16.3984" x2="16.4291" y2="35.8091">
				<stop  offset="0" style="stop-color:#EEB934"/>
				<stop  offset="0.8" style="stop-color:#E58212"/>
			</linearGradient>
			<path class="st2" d="M25.3,28.5c-0.8,3.3-3.8,5.7-7.3,5.7c-4.1,0-7.5-3.4-7.5-7.5c0-4.1,3.4-7.5,7.5-7.5h5.7
				c1.2-0.2,1.8-1.1,2-1.7v0H18c-5.1,0-9.3,4.2-9.3,9.3c0,5.1,4.2,9.3,9.3,9.3c4.5,0,8.2-3.2,9.1-7.4h-1H25.3z"/>
		</g>
		<linearGradient id="SVGID_4_" gradientUnits="userSpaceOnUse" x1="15.597" y1="26.6884" x2="35.4557" y2="26.6884">
			<stop  offset="1.750000e-02" style="stop-color:#3DB1DF"/>
			<stop  offset="0.1835" style="stop-color:#38A8D9"/>
			<stop  offset="0.4543" style="stop-color:#2A90C7"/>
			<stop  offset="0.7942" style="stop-color:#1368AB"/>
			<stop  offset="0.9565" style="stop-color:#07539C"/>
		</linearGradient>
		<path class="st3" d="M28.5,24.9h-8.6c-0.5-0.5-1.1-0.8-1.8-0.8c-1.4,0-2.5,1.1-2.5,2.5c0,1.4,1.1,2.5,2.5,2.5
			c0.7,0,1.2-0.3,1.7-0.7h3.1h1h2.2h1.9h7.4c0.1-0.6,0.1-1.2,0.1-1.9c0-0.6,0-1.2-0.1-1.7L28.5,24.9L28.5,24.9z"/>
		<g>
			<linearGradient id="SVGID_5_" gradientUnits="userSpaceOnUse" x1="18.0429" y1="36.3221" x2="35.4511" y2="36.3221">
				<stop  offset="0.11" style="stop-color:#0B76B7"/>
				<stop  offset="1" style="stop-color:#06529B"/>
			</linearGradient>
			<path class="st4" d="M18,40.2v3.9c9,0,16.4-6.8,17.3-15.6h-3.9C30.5,35.1,24.9,40.2,18,40.2z"/>
			<linearGradient id="SVGID_6_" gradientUnits="userSpaceOnUse" x1="18.0429" y1="33.8512" x2="30.5112" y2="33.8512">
				<stop  offset="0.11" style="stop-color:#17A58D"/>
				<stop  offset="1" style="stop-color:#1B94D3"/>
			</linearGradient>
			<path class="st5" d="M18,37v2.2c6.2,0,11.4-4.6,12.3-10.6h-2.2C27.3,33.3,23.1,37,18,37z"/>
			<linearGradient id="SVGID_7_" gradientUnits="userSpaceOnUse" x1="18.0429" y1="32.2432" x2="27.2941" y2="32.2432">
				<stop  offset="0.11" style="stop-color:#E58212"/>
				<stop  offset="1" style="stop-color:#DD580F"/>
			</linearGradient>
			<path class="st6" d="M25.3,28.5c-0.8,3.3-3.8,5.7-7.3,5.7v1.7c4.5,0,8.2-3.2,9.1-7.4h-1H25.3z"/>
		</g>
	</g>
	<g>
		<g>
			<g>
				<path class="st7" d="M47.1,37.5c-0.2,0.3-0.5,0.5-0.8,0.6c-0.4,0.1-0.8,0.2-1.2,0.2c-0.5,0-0.9-0.1-1.2-0.3
					c-0.4-0.2-0.6-0.5-0.8-0.9c-0.2-0.4-0.3-0.9-0.3-1.4v-0.4c0-0.8,0.2-1.5,0.6-2c0.4-0.5,1-0.7,1.7-0.7c0.6,0,1.1,0.2,1.5,0.5
					c0.4,0.3,0.6,0.8,0.7,1.3h-0.9c-0.1-0.7-0.5-1-1.2-1c-0.4,0-0.8,0.2-1,0.5c-0.2,0.3-0.3,0.8-0.4,1.4v0.4c0,0.6,0.1,1.1,0.4,1.4
					c0.3,0.3,0.6,0.5,1.1,0.5c0.5,0,0.8-0.1,1.1-0.3v-1.1H45v-0.7h2.1V37.5z"/>
				<path class="st7" d="M50.6,38.2c0-0.1-0.1-0.2-0.1-0.4c-0.3,0.3-0.7,0.5-1.1,0.5c-0.4,0-0.8-0.1-1-0.4c-0.3-0.2-0.4-0.5-0.4-0.9
					c0-0.4,0.2-0.8,0.5-1c0.3-0.2,0.8-0.4,1.4-0.4h0.6v-0.3c0-0.2-0.1-0.4-0.2-0.5c-0.1-0.1-0.3-0.2-0.5-0.2c-0.2,0-0.4,0.1-0.5,0.2
					C49,34.9,49,35.1,49,35.2H48c0-0.2,0.1-0.4,0.2-0.6c0.1-0.2,0.4-0.4,0.6-0.5c0.3-0.1,0.6-0.2,0.9-0.2c0.5,0,0.9,0.1,1.2,0.4
					c0.3,0.2,0.4,0.6,0.4,1v1.9c0,0.4,0.1,0.7,0.2,0.9v0.1H50.6z M49.5,37.5c0.2,0,0.4,0,0.5-0.1c0.2-0.1,0.3-0.2,0.4-0.4v-0.8h-0.5
					c-0.3,0-0.6,0.1-0.8,0.2c-0.2,0.1-0.3,0.3-0.3,0.5c0,0.2,0.1,0.3,0.2,0.4C49.2,37.5,49.3,37.5,49.5,37.5z"/>
				<path class="st7" d="M53.2,34l0,0.5c0.3-0.4,0.7-0.6,1.2-0.6c0.9,0,1.3,0.5,1.3,1.5v2.7h-0.9v-2.7c0-0.3-0.1-0.5-0.2-0.6
					c-0.1-0.1-0.3-0.2-0.6-0.2c-0.4,0-0.7,0.2-0.8,0.5v2.9h-0.9V34H53.2z"/>
				<path class="st7" d="M56.5,36.1c0-0.6,0.1-1.2,0.5-1.5c0.3-0.4,0.7-0.6,1.2-0.6c0.5,0,0.8,0.2,1.1,0.5l0-0.4h0.8v4
					c0,0.5-0.2,1-0.5,1.3c-0.3,0.3-0.8,0.5-1.4,0.5c-0.3,0-0.6-0.1-0.9-0.2c-0.3-0.1-0.5-0.3-0.7-0.5l0.4-0.6
					c0.3,0.3,0.6,0.5,1.1,0.5c0.3,0,0.6-0.1,0.7-0.3c0.2-0.2,0.3-0.4,0.3-0.7v-0.3c-0.3,0.3-0.6,0.4-1.1,0.4c-0.5,0-0.9-0.2-1.2-0.6
					C56.7,37.3,56.5,36.8,56.5,36.1z M57.4,36.2c0,0.4,0.1,0.7,0.3,1c0.2,0.2,0.4,0.4,0.7,0.4c0.4,0,0.7-0.2,0.8-0.5v-1.8
					c-0.2-0.3-0.5-0.5-0.8-0.5c-0.3,0-0.5,0.1-0.7,0.4C57.5,35.3,57.4,35.7,57.4,36.2z"/>
				<path class="st7" d="M64.8,36.9l0.7-2.9h0.9l-1.1,4.1h-0.8l-0.9-2.8l-0.9,2.8h-0.8L60.8,34h0.9l0.7,2.8l0.9-2.8h0.7L64.8,36.9z"
					/>
				<path class="st7" d="M66.8,36.1c0-0.4,0.1-0.8,0.2-1.1c0.2-0.3,0.4-0.6,0.7-0.8c0.3-0.2,0.6-0.3,1-0.3c0.6,0,1,0.2,1.4,0.5
					c0.3,0.4,0.5,0.8,0.6,1.4l0,0.2c0,0.4-0.1,0.8-0.2,1.1c-0.2,0.3-0.4,0.6-0.7,0.7c-0.3,0.2-0.6,0.3-1,0.3c-0.6,0-1.1-0.2-1.4-0.6
					C67,37.3,66.8,36.8,66.8,36.1L66.8,36.1z M67.7,36.1c0,0.4,0.1,0.8,0.3,1c0.2,0.2,0.4,0.4,0.7,0.4c0.3,0,0.6-0.1,0.7-0.4
					c0.2-0.2,0.3-0.6,0.3-1.1c0-0.4-0.1-0.7-0.3-1c-0.2-0.2-0.4-0.4-0.7-0.4c-0.3,0-0.5,0.1-0.7,0.4C67.8,35.3,67.7,35.7,67.7,36.1z
					"/>
				<path class="st7" d="M72.3,34l0,0.5c0.3-0.4,0.7-0.6,1.2-0.6c0.9,0,1.3,0.5,1.3,1.5v2.7h-0.9v-2.7c0-0.3-0.1-0.5-0.2-0.6
					c-0.1-0.1-0.3-0.2-0.6-0.2c-0.4,0-0.7,0.2-0.8,0.5v2.9h-0.9V34H72.3z"/>
				<path class="st7" d="M79.9,36h-1.1v2.1h-1v-5.6h2c0.6,0,1.1,0.1,1.5,0.4c0.3,0.3,0.5,0.7,0.5,1.3c0,0.4-0.1,0.7-0.3,0.9
					c-0.2,0.3-0.4,0.4-0.8,0.6l1.3,2.3v0.1h-1L79.9,36z M78.8,35.3h1c0.3,0,0.6-0.1,0.8-0.2c0.2-0.2,0.3-0.4,0.3-0.7
					c0-0.3-0.1-0.5-0.3-0.7c-0.2-0.2-0.4-0.2-0.8-0.3h-1V35.3z"/>
				<path class="st7" d="M84.4,38.3c-0.6,0-1.1-0.2-1.4-0.6c-0.4-0.4-0.5-0.9-0.5-1.5v-0.1c0-0.4,0.1-0.8,0.2-1.1
					c0.2-0.3,0.4-0.6,0.7-0.8c0.3-0.2,0.6-0.3,1-0.3c0.6,0,1,0.2,1.3,0.5c0.3,0.4,0.5,0.9,0.5,1.5v0.4h-2.7c0,0.3,0.1,0.6,0.3,0.8
					c0.2,0.2,0.5,0.3,0.8,0.3c0.4,0,0.8-0.2,1-0.5l0.5,0.5c-0.2,0.2-0.4,0.4-0.7,0.6C85.1,38.2,84.8,38.3,84.4,38.3z M84.3,34.7
					c-0.3,0-0.5,0.1-0.6,0.3c-0.2,0.2-0.3,0.4-0.3,0.7h1.8v-0.1c0-0.3-0.1-0.5-0.2-0.7C84.8,34.8,84.6,34.7,84.3,34.7z"/>
				<path class="st7" d="M86.7,36.1c0-0.6,0.2-1.2,0.5-1.5c0.3-0.4,0.7-0.6,1.2-0.6c0.5,0,0.8,0.2,1.1,0.5l0-0.4h0.8v4
					c0,0.5-0.2,1-0.5,1.3c-0.3,0.3-0.8,0.5-1.4,0.5c-0.3,0-0.6-0.1-0.9-0.2c-0.3-0.1-0.5-0.3-0.7-0.5l0.4-0.6
					c0.3,0.3,0.6,0.5,1.1,0.5c0.3,0,0.6-0.1,0.7-0.3c0.2-0.2,0.3-0.4,0.3-0.7v-0.3c-0.3,0.3-0.6,0.4-1.1,0.4c-0.5,0-0.9-0.2-1.2-0.6
					C86.8,37.3,86.7,36.8,86.7,36.1z M87.6,36.2c0,0.4,0.1,0.7,0.3,1c0.2,0.2,0.4,0.4,0.7,0.4c0.4,0,0.7-0.2,0.8-0.5v-1.8
					c-0.2-0.3-0.5-0.5-0.8-0.5c-0.3,0-0.5,0.1-0.7,0.4C87.7,35.3,87.6,35.7,87.6,36.2z"/>
				<path class="st7" d="M91.3,33c0-0.1,0-0.3,0.1-0.4c0.1-0.1,0.2-0.1,0.4-0.1c0.2,0,0.3,0,0.4,0.1c0.1,0.1,0.1,0.2,0.1,0.4
					c0,0.1,0,0.3-0.1,0.4c-0.1,0.1-0.2,0.1-0.4,0.1c-0.2,0-0.3,0-0.4-0.1C91.3,33.2,91.3,33.1,91.3,33z M92.2,38.2h-0.9V34h0.9V38.2
					z"/>
				<path class="st7" d="M93.1,36.1c0-0.4,0.1-0.8,0.2-1.1c0.2-0.3,0.4-0.6,0.7-0.8c0.3-0.2,0.6-0.3,1-0.3c0.6,0,1,0.2,1.4,0.5
					c0.3,0.4,0.5,0.8,0.6,1.4l0,0.2c0,0.4-0.1,0.8-0.2,1.1c-0.2,0.3-0.4,0.6-0.7,0.7c-0.3,0.2-0.6,0.3-1,0.3c-0.6,0-1.1-0.2-1.4-0.6
					C93.3,37.3,93.1,36.8,93.1,36.1L93.1,36.1z M94,36.1c0,0.4,0.1,0.8,0.3,1c0.2,0.2,0.4,0.4,0.7,0.4c0.3,0,0.6-0.1,0.7-0.4
					c0.2-0.2,0.3-0.6,0.3-1.1c0-0.4-0.1-0.7-0.3-1c-0.2-0.2-0.4-0.4-0.7-0.4c-0.3,0-0.5,0.1-0.7,0.4C94.1,35.3,94,35.7,94,36.1z"/>
				<path class="st7" d="M98.6,34l0,0.5c0.3-0.4,0.7-0.6,1.2-0.6c0.9,0,1.3,0.5,1.3,1.5v2.7h-0.9v-2.7c0-0.3-0.1-0.5-0.2-0.6
					c-0.1-0.1-0.3-0.2-0.6-0.2c-0.4,0-0.7,0.2-0.8,0.5v2.9h-0.9V34H98.6z"/>
				<path class="st7" d="M104.6,38.2c0-0.1-0.1-0.2-0.1-0.4c-0.3,0.3-0.7,0.5-1.1,0.5c-0.4,0-0.8-0.1-1-0.4
					c-0.3-0.2-0.4-0.5-0.4-0.9c0-0.4,0.2-0.8,0.5-1c0.3-0.2,0.8-0.4,1.4-0.4h0.6v-0.3c0-0.2-0.1-0.4-0.2-0.5
					c-0.1-0.1-0.3-0.2-0.5-0.2c-0.2,0-0.4,0.1-0.5,0.2c-0.1,0.1-0.2,0.2-0.2,0.4H102c0-0.2,0.1-0.4,0.2-0.6c0.2-0.2,0.4-0.4,0.6-0.5
					c0.3-0.1,0.5-0.2,0.9-0.2c0.5,0,0.9,0.1,1.2,0.4c0.3,0.2,0.4,0.6,0.4,1v1.9c0,0.4,0.1,0.7,0.2,0.9v0.1H104.6z M103.5,37.5
					c0.2,0,0.4,0,0.5-0.1c0.2-0.1,0.3-0.2,0.4-0.4v-0.8h-0.5c-0.3,0-0.6,0.1-0.8,0.2c-0.2,0.1-0.3,0.3-0.3,0.5
					c0,0.2,0.1,0.3,0.2,0.4C103.2,37.5,103.3,37.5,103.5,37.5z"/>
				<path class="st7" d="M107.3,38.2h-0.9v-5.9h0.9V38.2z"/>
				<path class="st7" d="M111.4,38.2h-1v-5.6h1V38.2z"/>
				<path class="st7" d="M113.4,34l0,0.5c0.3-0.4,0.7-0.6,1.2-0.6c0.9,0,1.3,0.5,1.3,1.5v2.7H115v-2.7c0-0.3-0.1-0.5-0.2-0.6
					c-0.1-0.1-0.3-0.2-0.6-0.2c-0.4,0-0.7,0.2-0.8,0.5v2.9h-0.9V34H113.4z"/>
				<path class="st7" d="M117.7,34l0,0.5c0.3-0.4,0.7-0.6,1.2-0.6c0.9,0,1.3,0.5,1.3,1.5v2.7h-0.9v-2.7c0-0.3-0.1-0.5-0.2-0.6
					c-0.1-0.1-0.3-0.2-0.6-0.2c-0.4,0-0.7,0.2-0.8,0.5v2.9h-0.9V34H117.7z"/>
				<path class="st7" d="M121,36.1c0-0.4,0.1-0.8,0.2-1.1c0.2-0.3,0.4-0.6,0.7-0.8c0.3-0.2,0.6-0.3,1-0.3c0.6,0,1,0.2,1.4,0.5
					c0.3,0.4,0.5,0.8,0.6,1.4l0,0.2c0,0.4-0.1,0.8-0.2,1.1c-0.2,0.3-0.4,0.6-0.7,0.7c-0.3,0.2-0.6,0.3-1,0.3c-0.6,0-1.1-0.2-1.4-0.6
					C121.2,37.3,121,36.8,121,36.1L121,36.1z M122,36.1c0,0.4,0.1,0.8,0.3,1c0.2,0.2,0.4,0.4,0.7,0.4c0.3,0,0.6-0.1,0.7-0.4
					c0.2-0.2,0.3-0.6,0.3-1.1c0-0.4-0.1-0.7-0.3-1c-0.2-0.2-0.4-0.4-0.7-0.4c-0.3,0-0.5,0.1-0.7,0.4C122.1,35.3,122,35.7,122,36.1z"
					/>
				<path class="st7" d="M127.1,37l0.9-3h1l-1.4,4.1h-0.8l-1.4-4.1h1L127.1,37z"/>
				<path class="st7" d="M131.9,38.2c0-0.1-0.1-0.2-0.1-0.4c-0.3,0.3-0.7,0.5-1.1,0.5c-0.4,0-0.8-0.1-1-0.4
					c-0.3-0.2-0.4-0.5-0.4-0.9c0-0.4,0.2-0.8,0.5-1c0.3-0.2,0.8-0.4,1.4-0.4h0.6v-0.3c0-0.2-0.1-0.4-0.2-0.5
					c-0.1-0.1-0.3-0.2-0.5-0.2c-0.2,0-0.4,0.1-0.5,0.2c-0.1,0.1-0.2,0.2-0.2,0.4h-0.9c0-0.2,0.1-0.4,0.2-0.6
					c0.1-0.2,0.4-0.4,0.6-0.5c0.3-0.1,0.5-0.2,0.9-0.2c0.5,0,0.9,0.1,1.2,0.4c0.3,0.2,0.4,0.6,0.4,1v1.9c0,0.4,0.1,0.7,0.2,0.9v0.1
					H131.9z M130.9,37.5c0.2,0,0.4,0,0.5-0.1c0.2-0.1,0.3-0.2,0.4-0.4v-0.8h-0.5c-0.3,0-0.6,0.1-0.8,0.2c-0.2,0.1-0.3,0.3-0.3,0.5
					c0,0.2,0.1,0.3,0.2,0.4C130.5,37.5,130.7,37.5,130.9,37.5z"/>
				<path class="st7" d="M134.8,33v1h0.7v0.7h-0.7V37c0,0.2,0,0.3,0.1,0.3c0.1,0.1,0.2,0.1,0.3,0.1c0.1,0,0.2,0,0.3,0v0.7
					c-0.2,0.1-0.4,0.1-0.6,0.1c-0.7,0-1.1-0.4-1.1-1.2v-2.3h-0.7V34h0.7v-1H134.8z"/>
				<path class="st7" d="M136.3,33c0-0.1,0-0.3,0.1-0.4c0.1-0.1,0.2-0.1,0.4-0.1s0.3,0,0.4,0.1c0.1,0.1,0.1,0.2,0.1,0.4
					c0,0.1,0,0.3-0.1,0.4c-0.1,0.1-0.2,0.1-0.4,0.1s-0.3,0-0.4-0.1C136.3,33.2,136.3,33.1,136.3,33z M137.3,38.2h-0.9V34h0.9V38.2z"
					/>
				<path class="st7" d="M138.1,36.1c0-0.4,0.1-0.8,0.2-1.1c0.2-0.3,0.4-0.6,0.7-0.8c0.3-0.2,0.6-0.3,1-0.3c0.6,0,1,0.2,1.4,0.5
					c0.3,0.4,0.5,0.8,0.6,1.4l0,0.2c0,0.4-0.1,0.8-0.2,1.1c-0.2,0.3-0.4,0.6-0.7,0.7c-0.3,0.2-0.6,0.3-1,0.3c-0.6,0-1.1-0.2-1.4-0.6
					C138.3,37.3,138.1,36.8,138.1,36.1L138.1,36.1z M139,36.1c0,0.4,0.1,0.8,0.3,1c0.2,0.2,0.4,0.4,0.7,0.4c0.3,0,0.6-0.1,0.7-0.4
					c0.2-0.2,0.3-0.6,0.3-1.1c0-0.4-0.1-0.7-0.3-1c-0.2-0.2-0.4-0.4-0.7-0.4c-0.3,0-0.5,0.1-0.7,0.4C139.1,35.3,139,35.7,139,36.1z"
					/>
				<path class="st7" d="M143.6,34l0,0.5c0.3-0.4,0.7-0.6,1.2-0.6c0.9,0,1.3,0.5,1.3,1.5v2.7h-0.9v-2.7c0-0.3-0.1-0.5-0.2-0.6
					c-0.1-0.1-0.3-0.2-0.6-0.2c-0.4,0-0.7,0.2-0.8,0.5v2.9h-0.9V34H143.6z"/>
				<path class="st7" d="M150.1,36.1v2.1h-1v-5.6h2.1c0.6,0,1.1,0.2,1.5,0.5c0.4,0.3,0.5,0.8,0.5,1.3c0,0.5-0.2,1-0.5,1.3
					c-0.4,0.3-0.9,0.5-1.5,0.5H150.1z M150.1,35.3h1.2c0.3,0,0.6-0.1,0.8-0.2c0.2-0.2,0.3-0.4,0.3-0.7c0-0.3-0.1-0.5-0.3-0.7
					c-0.2-0.2-0.4-0.3-0.8-0.3h-1.2V35.3z"/>
				<path class="st7" d="M155.1,38.2h-0.9v-5.9h0.9V38.2z"/>
				<path class="st7" d="M158.5,38.2c0-0.1-0.1-0.2-0.1-0.4c-0.3,0.3-0.7,0.5-1.1,0.5c-0.4,0-0.8-0.1-1-0.4
					c-0.3-0.2-0.4-0.5-0.4-0.9c0-0.4,0.2-0.8,0.5-1c0.3-0.2,0.8-0.4,1.4-0.4h0.6v-0.3c0-0.2-0.1-0.4-0.2-0.5
					c-0.1-0.1-0.3-0.2-0.5-0.2c-0.2,0-0.4,0.1-0.5,0.2c-0.1,0.1-0.2,0.2-0.2,0.4H156c0-0.2,0.1-0.4,0.2-0.6c0.1-0.2,0.4-0.4,0.6-0.5
					s0.5-0.2,0.9-0.2c0.5,0,0.9,0.1,1.2,0.4c0.3,0.2,0.4,0.6,0.4,1v1.9c0,0.4,0.1,0.7,0.2,0.9v0.1H158.5z M157.5,37.5
					c0.2,0,0.4,0,0.5-0.1c0.2-0.1,0.3-0.2,0.4-0.4v-0.8h-0.5c-0.3,0-0.6,0.1-0.8,0.2c-0.2,0.1-0.3,0.3-0.3,0.5
					c0,0.2,0.1,0.3,0.2,0.4C157.2,37.5,157.3,37.5,157.5,37.5z"/>
				<path class="st7" d="M161.5,33v1h0.7v0.7h-0.7V37c0,0.2,0,0.3,0.1,0.3c0.1,0.1,0.2,0.1,0.3,0.1c0.1,0,0.2,0,0.3,0v0.7
					c-0.2,0.1-0.4,0.1-0.6,0.1c-0.7,0-1.1-0.4-1.1-1.2v-2.3h-0.7V34h0.7v-1H161.5z"/>
				<path class="st7" d="M163.2,38.2v-3.5h-0.6V34h0.6v-0.4c0-0.5,0.1-0.8,0.4-1.1c0.3-0.2,0.6-0.4,1.1-0.4c0.2,0,0.3,0,0.5,0.1
					l0,0.7c-0.1,0-0.2,0-0.4,0c-0.4,0-0.7,0.2-0.7,0.7V34h0.8v0.7h-0.8v3.5H163.2z"/>
				<path class="st7" d="M165.5,36.1c0-0.4,0.1-0.8,0.2-1.1c0.2-0.3,0.4-0.6,0.7-0.8c0.3-0.2,0.6-0.3,1-0.3c0.6,0,1,0.2,1.4,0.5
					c0.3,0.4,0.5,0.8,0.6,1.4l0,0.2c0,0.4-0.1,0.8-0.2,1.1c-0.2,0.3-0.4,0.6-0.7,0.7c-0.3,0.2-0.6,0.3-1,0.3c-0.6,0-1.1-0.2-1.4-0.6
					C165.7,37.3,165.5,36.8,165.5,36.1L165.5,36.1z M166.5,36.1c0,0.4,0.1,0.8,0.3,1c0.2,0.2,0.4,0.4,0.7,0.4c0.3,0,0.6-0.1,0.7-0.4
					c0.2-0.2,0.3-0.6,0.3-1.1c0-0.4-0.1-0.7-0.3-1c-0.2-0.2-0.4-0.4-0.7-0.4c-0.3,0-0.5,0.1-0.7,0.4
					C166.5,35.3,166.5,35.7,166.5,36.1z"/>
				<path class="st7" d="M172.3,34.9c-0.1,0-0.2,0-0.4,0c-0.4,0-0.7,0.2-0.9,0.5v2.8h-0.9V34h0.9l0,0.5c0.2-0.4,0.5-0.5,0.9-0.5
					c0.1,0,0.2,0,0.3,0.1L172.3,34.9z"/>
				<path class="st7" d="M173.8,34l0,0.4c0.3-0.3,0.7-0.5,1.2-0.5c0.6,0,0.9,0.2,1.1,0.6c0.3-0.4,0.7-0.6,1.3-0.6
					c0.5,0,0.8,0.1,1,0.4c0.2,0.3,0.3,0.6,0.3,1.1v2.7h-0.9v-2.7c0-0.3-0.1-0.5-0.2-0.6c-0.1-0.1-0.3-0.2-0.6-0.2
					c-0.2,0-0.4,0.1-0.5,0.2c-0.1,0.1-0.2,0.3-0.3,0.4l0,2.8h-0.9v-2.7c0-0.5-0.3-0.7-0.7-0.7c-0.4,0-0.6,0.2-0.8,0.5v3h-0.9V34
					H173.8z"/>
			</g>
		</g>
		<g>
			<g>
				<path class="st8" d="M55.4,15.3c0-0.7-0.6-1.3-1.3-1.3h-0.7v8.7h2V19h1.9v-1.9h-1.9V15.3z"/>
				<path class="st8" d="M54.8,23.8c-0.3-0.3-0.7-0.5-1.2-0.7c-0.4-0.2-0.9-0.2-1.5-0.2h-4.5c-0.5,0-1,0.1-1.5,0.2
					c-0.5,0.2-0.8,0.4-1.2,0.7c-0.3,0.3-0.6,0.6-0.8,1c-0.2,0.4-0.3,0.9-0.3,1.3c0,0.5,0.1,0.9,0.3,1.3c0.2,0.4,0.4,0.7,0.8,1
					c0.3,0.3,0.7,0.5,1.2,0.7c0.4,0.1,0.9,0.2,1.5,0.2h4.5c0.5,0,1-0.1,1.5-0.2c0.5-0.1,0.8-0.4,1.2-0.7c0.3-0.3,0.6-0.6,0.8-1
					c0.2-0.4,0.3-0.8,0.3-1.3c0-0.5-0.1-0.9-0.3-1.3C55.4,24.4,55.1,24.1,54.8,23.8z M53.8,26.2c0,0.4-0.2,0.8-0.5,1
					c-0.3,0.2-0.8,0.4-1.3,0.4h-4.3c-0.5,0-1-0.1-1.3-0.4c-0.3-0.2-0.5-0.6-0.5-1c0-0.4,0.2-0.8,0.5-1c0.3-0.2,0.8-0.4,1.3-0.4H52
					c0.5,0,1,0.1,1.3,0.4C53.7,25.4,53.8,25.7,53.8,26.2z"/>
				<path class="st8" d="M49.6,20.2c0.3-0.1,0.5-0.3,0.7-0.4c0.2-0.1,0.3-0.3,0.5-0.5c0.1-0.2,0.2-0.4,0.3-0.7
					c0.1-0.2,0.1-0.5,0.1-0.8v-3.4h-7.9v1.9h5.9v1.2c0,0.3,0,0.6-0.1,0.7c-0.1,0.1-0.2,0.3-0.5,0.4c-0.4,0.2-0.9,0.4-1.3,0.6
					c-0.5,0.2-1,0.4-1.5,0.6c-0.5,0.2-1,0.4-1.6,0.6l-0.3,0.1c-0.4,0.2-0.8,0.3-1.2,0.5l-0.1,0.1l0.8,1.6l0.1,0h0
					c1-0.4,2.1-0.8,3.2-1.3C47.6,21,48.7,20.6,49.6,20.2z"/>
				<polygon class="st8" points="62.1,25.1 64.1,25.1 64.1,22.4 68.5,22.4 68.5,20.5 58.2,20.5 58.2,22.4 62.1,22.4 				"/>
				<path class="st8" d="M65.8,25h3.6v1.2h2V15.3c0-0.7-0.6-1.3-1.3-1.3h-0.7v9.2h-3.6V25z"/>
				<path class="st8" d="M60,19.3c0.4,0.3,0.9,0.5,1.4,0.6c0.6,0.1,1.2,0.2,2,0.2c0.7,0,1.4-0.1,2-0.2c0.6-0.1,1.1-0.4,1.4-0.6
					c0.4-0.3,0.7-0.6,0.9-1c0.2-0.4,0.3-0.8,0.3-1.2c0-0.4-0.1-0.8-0.3-1.2c-0.2-0.4-0.5-0.7-0.9-1c-0.4-0.3-0.9-0.5-1.4-0.6
					c-0.6-0.2-1.2-0.2-2-0.2c-0.8,0-1.4,0.1-2,0.2c-0.6,0.2-1,0.4-1.4,0.6c-0.4,0.3-0.7,0.6-0.9,1c-0.2,0.4-0.3,0.8-0.3,1.2
					s0.1,0.8,0.3,1.2C59.3,18.7,59.6,19,60,19.3z M60.8,17.1c0-0.3,0.2-0.6,0.6-0.8c0.4-0.3,1.1-0.4,2-0.4c0.9,0,1.5,0.1,2,0.4
					c0.4,0.2,0.6,0.5,0.6,0.8c0,0.3-0.2,0.6-0.6,0.8c-0.4,0.2-1.1,0.4-2,0.4c-0.9,0-1.5-0.1-2-0.4C61,17.7,60.8,17.4,60.8,17.1z"/>
				<polygon class="st8" points="61.8,27.5 61.8,24.7 59.8,24.7 59.8,29.3 71.8,29.3 71.8,27.5 				"/>
			</g>
			<g>
				<path class="st8" d="M81.9,23.1c-0.7-0.9-1.3-1.8-1.8-2.6c-0.1-0.2-0.3-0.5-0.3-0.9c-0.1-0.3-0.1-0.7-0.1-1v-2.1h3.4v-1.9h-9
					v1.9h3.6v2.1c0,0.3,0,0.7-0.1,1c-0.1,0.3-0.2,0.6-0.3,0.9c-0.3,0.4-0.5,0.9-0.9,1.3c-0.3,0.4-0.6,0.9-1,1.4
					c-0.4,0.5-0.7,0.9-1,1.3c-0.3,0.4-0.7,0.8-1.1,1.3L73.3,26l1.3,1.4l0.1,0.1l0.1-0.1c0.8-1,1.5-1.9,2.2-2.7
					c0.7-0.8,1.3-1.7,1.8-2.5c0.5,0.8,1.1,1.6,1.7,2.3c0.7,0.8,1.4,1.7,2.1,2.6l0.1,0.1l1.3-1.4l-0.1-0.1
					C83.2,24.8,82.6,24,81.9,23.1z"/>
				<path class="st8" d="M85.6,13.9h-0.7v15.4h2V15.2C86.9,14.5,86.3,13.9,85.6,13.9z"/>
				<polygon class="st8" points="90.4,25.2 99.9,25.2 99.9,29.3 101.9,29.3 101.9,23.4 90.4,23.4 				"/>
				<path class="st8" d="M100.6,13.9h-0.7v1.4h-3c-0.4-0.5-0.9-0.9-1.5-1.1c-0.6-0.3-1.3-0.4-2-0.4c-0.6,0-1.2,0.1-1.8,0.3
					c-0.5,0.2-1,0.5-1.4,0.9c-0.4,0.4-0.7,0.8-0.9,1.4C89.1,17,89,17.5,89,18.1c0,0.6,0.1,1.2,0.3,1.7c0.2,0.5,0.5,1,0.9,1.4
					c0.4,0.4,0.9,0.7,1.4,0.9c0.5,0.2,1.1,0.3,1.8,0.3c0.7,0,1.3-0.1,1.9-0.4c0.6-0.2,1-0.6,1.4-1h3.2v1.7h2v-7.6
					C101.9,14.5,101.3,13.9,100.6,13.9z M97.9,18.1c0-0.3,0-0.6-0.1-0.9h2.1v2h-2.2c0-0.1,0.1-0.3,0.1-0.4
					C97.9,18.6,97.9,18.4,97.9,18.1z M95.9,18.1c0,0.4-0.1,0.7-0.2,1c-0.1,0.3-0.3,0.6-0.5,0.8c-0.2,0.2-0.5,0.4-0.8,0.5
					c-0.3,0.1-0.6,0.2-1,0.2c-0.4,0-0.7-0.1-1-0.2c-0.3-0.1-0.6-0.3-0.8-0.5c-0.2-0.2-0.4-0.5-0.5-0.8c-0.1-0.3-0.2-0.6-0.2-1
					c0-0.4,0.1-0.7,0.2-1c0.1-0.3,0.3-0.6,0.5-0.8c0.2-0.2,0.5-0.4,0.8-0.5c0.3-0.1,0.6-0.2,1-0.2c0.4,0,0.7,0.1,1,0.2
					c0.3,0.1,0.6,0.3,0.8,0.5c0.2,0.2,0.4,0.5,0.5,0.8C95.8,17.4,95.9,17.8,95.9,18.1z"/>
				<polygon class="st8" points="105.6,25.9 115.1,25.9 115.1,29.3 117.1,29.3 117.1,24.1 105.6,24.1 				"/>
				<path class="st8" d="M109.9,23.3c1,0,1.7-0.2,2.3-0.7c0.6-0.5,0.9-1.2,0.9-2.2c0-0.9-0.3-1.7-0.9-2.2c-0.6-0.5-1.4-0.7-2.3-0.7
					h-2.2c-1,0-1.8,0.2-2.3,0.7c-0.6,0.5-0.9,1.2-0.9,2.2c0,0.9,0.3,1.7,0.9,2.2c0.6,0.5,1.4,0.7,2.3,0.7H109.9z M111,19.9
					c0.1,0.1,0.1,0.3,0.1,0.5c0,0.2,0,0.4-0.1,0.5c-0.1,0.1-0.2,0.2-0.3,0.3c-0.1,0.1-0.3,0.1-0.4,0.2c-0.2,0-0.4,0.1-0.6,0.1h-1.9
					c-0.2,0-0.4,0-0.6-0.1c-0.2,0-0.3-0.1-0.4-0.2c-0.1-0.1-0.2-0.2-0.3-0.3c-0.1-0.1-0.1-0.3-0.1-0.5c0-0.4,0.1-0.7,0.4-0.8
					c0.3-0.2,0.6-0.3,1-0.3h1.9c0.2,0,0.4,0,0.6,0.1c0.2,0,0.3,0.1,0.4,0.2C110.9,19.6,111,19.7,111,19.9z"/>
				<path class="st8" d="M113.6,15.1h-3.7v-0.2c0-0.7-0.6-1.3-1.3-1.3h-0.7v1.5h-3.8v1.9h9.5V15.1z"/>
				<path class="st8" d="M115.8,13.9h-0.7v3.5h-1.6v1.8h1.6v1.2h-1.6v1.8h1.6v1.4h2v-8.4C117.1,14.5,116.5,13.9,115.8,13.9z"/>
				<path class="st8" d="M132.3,15.1c0-0.7-0.6-1.3-1.3-1.3h-0.7v11.3h2V15.1z"/>
				<path class="st8" d="M122.3,21.4L122.3,21.4c0.4-0.3,0.8-0.7,1.1-1c0.3-0.3,0.6-0.6,0.8-0.8c0.3,0.2,0.5,0.5,0.8,0.8
					c0.4,0.3,0.7,0.6,1.1,0.9c0.4,0.3,0.7,0.6,1.1,0.9c0.4,0.3,0.7,0.6,1,0.8l0.1,0.1l1.2-1.5l-0.1-0.1c-0.7-0.5-1.3-1.1-2-1.7
					c-0.7-0.6-1.3-1.2-1.8-1.7c-0.1-0.1-0.2-0.3-0.3-0.5c0-0.2-0.1-0.4-0.1-0.6v-2.9h-2v2.9c0,0.2,0,0.4-0.1,0.6
					c0,0.2-0.1,0.3-0.3,0.5c-0.2,0.3-0.5,0.6-0.8,0.9c-0.3,0.3-0.6,0.6-1,0.9c-0.3,0.3-0.7,0.6-1,0.9c-0.3,0.3-0.7,0.6-1,0.9
					l-0.1,0.1l1.1,1.4l0.1,0.1l0.1-0.1c0.3-0.3,0.7-0.5,1-0.9C121.5,22,121.9,21.7,122.3,21.4z"/>
				<polygon class="st8" points="123,23.7 121,23.7 121,29.1 132.7,29.1 132.7,27.3 123,27.3 				"/>
				<path class="st8" d="M147.6,18.7c0-0.7-0.6-1.3-1.3-1.3h-0.9v-1.8h1.9v-0.5c0-0.7-0.6-1.3-1.3-1.3h-10.5v1.8h1.9v1.8h-2.2v1.8
					h12.4V18.7z M143.4,15.6v1.8h-4v-1.8H143.4z"/>
				<rect x="134.1" y="19.9" class="st8" width="14.5" height="1.8"/>
				<polygon class="st8" points="137.5,26.8 147.2,26.8 147.2,22.5 135.5,22.5 135.5,24.3 145.2,24.3 145.2,25.1 135.5,25.1 
					135.5,29.3 147.5,29.3 147.5,27.6 137.5,27.6 				"/>
				<path class="st8" d="M159.8,19.3h1.6V24h2v-8.8c0-0.7-0.6-1.3-1.3-1.3h-0.7v3.5h-1.6v-2c0-0.7-0.6-1.3-1.3-1.3h-0.7v8.8h2V19.3z
					"/>
				<path class="st8" d="M163.1,27.2c-0.4-0.2-0.8-0.4-1.2-0.5c-0.4-0.2-0.8-0.4-1.2-0.6c-0.4-0.2-0.7-0.4-1-0.5
					c-0.2-0.1-0.4-0.2-0.5-0.3c-0.1-0.1-0.2-0.2-0.3-0.3c-0.1-0.1-0.1-0.2-0.1-0.4c0-0.1,0-0.3,0-0.5v-0.7h-2.1v0.7
					c0,0.3-0.1,0.6-0.2,0.8c-0.1,0.2-0.4,0.4-0.7,0.6c-0.3,0.2-0.7,0.3-1.1,0.5c-0.4,0.2-0.8,0.4-1.2,0.5c-0.4,0.2-0.8,0.4-1.2,0.5
					c-0.4,0.2-0.8,0.3-1.1,0.5l-0.2,0.1l1,1.6l0.1,0c0.7-0.3,1.5-0.6,2.3-1c0.8-0.4,1.6-0.7,2.3-1.1c0.2-0.1,0.4-0.2,0.5-0.3
					c0.1-0.1,0.2-0.2,0.4-0.3c0.1,0.1,0.2,0.2,0.4,0.3c0.2,0.1,0.3,0.2,0.5,0.3c0.7,0.4,1.5,0.7,2.3,1.1c0.8,0.4,1.6,0.7,2.3,1
					l0.1,0l1-1.6l-0.2-0.1C163.8,27.6,163.4,27.4,163.1,27.2z"/>
				<polygon class="st8" points="149.9,17.6 149.9,22.8 157.1,22.8 157.1,21 151.9,21 151.9,19.4 156.5,19.4 156.5,14.2 149.9,14.2 
					149.9,16 154.5,16 154.5,17.6 				"/>
				<path class="st8" d="M172.8,21.2v-1h5.2v-0.6c0-0.7-0.6-1.3-1.3-1.3h-0.9v-2.5h1.9v-0.6c0-0.7-0.6-1.3-1.3-1.3h-10.5v1.9h1.9
					v2.5h-2.2v1.9h5.2v1h-6.2v1.9H179v-1.9H172.8z M169.7,18.3v-2.5h4v2.5H169.7z"/>
				<path class="st8" d="M165.9,29.2h11.7v-5.4h-11.7V29.2z M175.6,25.7v1.6h-7.7v-1.6H175.6z"/>
			</g>
		</g>
	</g>
</g>
</svg>
